<svg width="1024" height="1024" viewBox="0 0 1024 1024" xmlns="http://www.w3.org/2000/svg">
  <defs>
    <linearGradient id="bg" x1="0" y1="0" x2="1" y2="1">
      <stop offset="0%" stop-color="#5ec97e"/><stop offset="50%" stop-color="#46B065"/><stop offset="100%" stop-color="#3a9454"/>
    </linearGradient>
    <radialGradient id="glow" cx="0.3" cy="0.3" r="0.7">
      <stop offset="0%" stop-color="white" stop-opacity="0.1"/><stop offset="100%" stop-color="white" stop-opacity="0"/>
    </radialGradient>
    <linearGradient id="shadow" x1="0" y1="1" x2="0" y2="0">
      <stop offset="0%" stop-color="black" stop-opacity="0.05"/><stop offset="100%" stop-color="black" stop-opacity="0"/>
    </linearGradient>
  </defs>
  <rect width="1024" height="1024" rx="224" fill="url(#bg)"/>
  <rect width="1024" height="1024" rx="224" fill="url(#glow)"/>
  <rect width="1024" height="400" y="624" rx="0" fill="url(#shadow)"/>
  <g transform="translate(0,1024) scale(0.1,-0.1)" fill="white" stroke="none">
    <path d="M2345 7527 c-17 -8 -46 -29 -64 -48 -18 -18 -42 -53 -52 -77 -11 -24 -28 -94 -39 -156 -11 -61 -27 -176 -37 -256 -14 -114 -18 -225 -18 -525 0 -252 4 -420 13 -500 8 -66 25 -187 38 -270 14 -82 40 -214 59 -292 19 -78 55 -206 81 -285 25 -79 75 -210 111 -293 35 -82 93 -204 130 -270 36 -66 99 -169 139 -230 40 -60 112 -159 161 -219 48 -61 137 -160 198 -221 60 -60 156 -147 213 -193 56 -45 149 -113 205 -150 56 -38 147 -94 202 -124 55 -31 145 -76 200 -101 55 -24 143 -60 195 -80 52 -19 151 -51 220 -71 69 -19 181 -47 250 -60 69 -14 181 -32 250 -41 69 -9 222 -19 340 -22 135 -4 265 -1 350 6 74 7 194 23 265 36 72 14 178 38 237 54 58 17 153 49 210 72 56 22 148 64 202 92 54 27 140 77 190 110 50 33 118 80 151 106 33 25 99 83 147 129 l87 84 48 -74 c26 -40 76 -129 110 -198 35 -69 90 -192 122 -275 32 -82 89 -242 126 -355 37 -113 78 -222 91 -243 13 -20 42 -50 64 -66 22 -16 63 -35 91 -41 31 -8 76 -10 113 -6 37 3 85 18 122 36 36 18 82 52 113 85 29 30 65 83 81 117 16 35 35 98 41 140 l12 77 -17 87 c-9 48 -33 126 -52 173 -19 47 -58 127 -86 176 -28 50 -86 142 -129 205 -43 63 -120 168 -173 234 -52 65 -145 174 -206 243 -62 68 -154 162 -206 207 -51 46 -128 110 -169 141 -42 32 -120 84 -173 118 -53 33 -164 93 -246 133 -83 40 -202 91 -264 113 -62 23 -176 59 -253 81 -77 22 -211 55 -297 74 -86 20 -321 65 -522 101 -201 36 -430 81 -510 100 -80 18 -190 48 -245 65 -55 18 -143 51 -196 75 -53 23 -136 68 -185 100 -49 32 -124 92 -167 134 -44 42 -104 113 -134 159 -30 45 -70 118 -89 163 -19 44 -34 89 -34 100 0 10 9 28 20 39 11 11 29 20 41 20 12 0 49 -27 87 -63 37 -35 98 -90 136 -122 38 -32 107 -82 153 -112 46 -30 130 -76 186 -103 56 -26 152 -64 214 -84 61 -19 167 -47 235 -60 68 -13 179 -31 248 -40 69 -9 251 -27 405 -41 153 -14 329 -32 390 -41 60 -8 169 -26 240 -40 72 -14 180 -41 241 -60 61 -18 163 -55 228 -83 64 -27 160 -74 214 -104 53 -31 130 -79 171 -108 41 -28 117 -87 169 -131 52 -44 113 -89 136 -99 23 -10 55 -19 71 -19 17 0 48 9 71 19 23 11 50 33 62 53 11 18 26 65 33 103 6 39 12 165 12 280 0 141 -5 250 -17 333 -9 67 -25 162 -37 210 -11 48 -29 119 -41 157 -12 39 -41 117 -64 173 -24 57 -67 144 -95 194 -28 49 -78 125 -110 169 -33 44 -94 116 -137 160 -42 45 -111 108 -152 142 -41 33 -113 85 -159 115 -46 30 -136 81 -200 113 -64 31 -160 74 -215 94 -54 20 -159 52 -233 71 -75 19 -188 43 -252 53 -64 11 -181 25 -259 32 -92 7 -228 10 -375 6 -225 -6 -354 -18 -827 -79 l-175 -22 -330 -1 -330 0 -121 22 c-66 12 -165 36 -220 54 -54 17 -139 51 -187 75 -48 24 -118 63 -155 88 -37 24 -111 85 -165 134 -54 50 -115 98 -135 108 -20 10 -64 19 -97 21 -36 2 -72 -2 -90 -10z"/>
  </g>
  <circle cx="170" cy="750" r="18" fill="white" opacity="0.18"/>
  <circle cx="250" cy="830" r="13" fill="white" opacity="0.13"/>
  <circle cx="120" cy="860" r="10" fill="white" opacity="0.09"/>
</svg>